dataset
version=1
nRows=28
nColumns=39
inDegrees=no
endheader
time	sternoclavicular_r2	sternoclavicular_r3	unrotscap_r3	unrotscap_r2	acromioclavicular_r2	acromioclavicular_r3	acromioclavicular_r1	unrothum_r1	unrothum_r3	unrothum_r2	elv_angle	shoulder_elv	shoulder1_r2	shoulder_rot	elbow_flexion	pro_sup	deviation	flexion	cmc_abduction	cmc_flexion	mp_flexion	ip_flexion	mcp2_flexion	mcp2_abduction	pm2_flexion	md2_flexion	mcp3_flexion	mcp3_abduction	pm3_flexion	md3_flexion	mcp4_flexion	mcp4_abduction	pm4_flexion	md4_flexion	mcp5_flexion	mcp5_abduction	pm5_flexion	md5_flexion
9.160000	-0.041675	-0.264134	0.098623	0.148432	0.112388	0.178933	0.029167	0.096904	0.119565	0.041471	0.077690	0.027437	0.146525	0.146525	1.632810	1.299591	0.000000	0.000000	0.000000	0.000000	0.000000	0.000000	0.000000	0.000000	0.000000	0.000000	0.000000	0.000000	0.000000	0.000000	0.000000	0.000000	0.000000	0.000000	0.000000	0.000000	0.000000	0.000000
9.165000	-0.041583	-0.264232	0.098624	0.149093	0.113253	0.177975	0.028695	0.096647	0.118612	0.042332	0.078172	0.027437	0.146525	0.146525	1.630024	1.299580	0.000000	0.000000	0.000000	0.000000	0.000000	0.000000	0.000000	0.000000	0.000000	0.000000	0.000000	0.000000	0.000000	0.000000	0.000000	0.000000	0.000000	0.000000	0.000000	0.000000	0.000000	0.000000
9.170000	-0.041491	-0.264330	0.098626	0.149748	0.114111	0.177021	0.028225	0.096388	0.117668	0.043187	0.078651	0.027437	0.146525	0.146525	1.627264	1.299567	0.000000	0.000000	0.000000	0.000000	0.000000	0.000000	0.000000	0.000000	0.000000	0.000000	0.000000	0.000000	0.000000	0.000000	0.000000	0.000000	0.000000	0.000000	0.000000	0.000000	0.000000	0.000000
9.175000	-0.041400	-0.264429	0.098627	0.150397	0.114962	0.176072	0.027759	0.096125	0.116731	0.044037	0.079127	0.027437	0.146525	0.146525	1.624528	1.299553	0.000000	0.000000	0.000000	0.000000	0.000000	0.000000	0.000000	0.000000	0.000000	0.000000	0.000000	0.000000	0.000000	0.000000	0.000000	0.000000	0.000000	0.000000	0.000000	0.000000	0.000000	0.000000
9.180000	-0.041309	-0.264527	0.098629	0.151042	0.115807	0.175127	0.027295	0.095861	0.115801	0.044882	0.079599	0.027437	0.146525	0.146525	1.621818	1.299538	0.000000	0.000000	0.000000	0.000000	0.000000	0.000000	0.000000	0.000000	0.000000	0.000000	0.000000	0.000000	0.000000	0.000000	0.000000	0.000000	0.000000	0.000000	0.000000	0.000000	0.000000	0.000000
9.185000	-0.041219	-0.264626	0.098632	0.151680	0.116645	0.174188	0.026835	0.095594	0.114880	0.045720	0.080067	0.027437	0.146525	0.146525	1.619132	1.299521	0.000000	0.000000	0.000000	0.000000	0.000000	0.000000	0.000000	0.000000	0.000000	0.000000	0.000000	0.000000	0.000000	0.000000	0.000000	0.000000	0.000000	0.000000	0.000000	0.000000	0.000000	0.000000
9.190000	-0.041129	-0.264725	0.098635	0.152313	0.117476	0.173254	0.026377	0.095324	0.113966	0.046553	0.080532	0.027437	0.146525	0.146525	1.616472	1.299504	0.000000	0.000000	0.000000	0.000000	0.000000	0.000000	0.000000	0.000000	0.000000	0.000000	0.000000	0.000000	0.000000	0.000000	0.000000	0.000000	0.000000	0.000000	0.000000	0.000000	0.000000	0.000000
9.195000	-0.041040	-0.264823	0.098638	0.152940	0.118299	0.172325	0.025923	0.095053	0.113059	0.047379	0.080993	0.027437	0.146525	0.146525	1.613837	1.299486	0.000000	0.000000	0.000000	0.000000	0.000000	0.000000	0.000000	0.000000	0.000000	0.000000	0.000000	0.000000	0.000000	0.000000	0.000000	0.000000	0.000000	0.000000	0.000000	0.000000	0.000000	0.000000
9.200000	-0.040951	-0.264922	0.098641	0.153561	0.119116	0.171402	0.025471	0.094779	0.112161	0.048199	0.081450	0.027437	0.146525	0.146525	1.611228	1.299467	0.000000	0.000000	0.000000	0.000000	0.000000	0.000000	0.000000	0.000000	0.000000	0.000000	0.000000	0.000000	0.000000	0.000000	0.000000	0.000000	0.000000	0.000000	0.000000	0.000000	0.000000	0.000000
9.205000	-0.040863	-0.265021	0.098645	0.154175	0.119925	0.170483	0.025023	0.094503	0.111269	0.049012	0.081902	0.027437	0.146525	0.146525	1.608643	1.299446	0.000000	0.000000	0.000000	0.000000	0.000000	0.000000	0.000000	0.000000	0.000000	0.000000	0.000000	0.000000	0.000000	0.000000	0.000000	0.000000	0.000000	0.000000	0.000000	0.000000	0.000000	0.000000
9.210000	-0.040775	-0.265119	0.098649	0.154784	0.120727	0.169570	0.024578	0.094225	0.110386	0.049819	0.082351	0.027437	0.146525	0.146525	1.606085	1.299425	0.000000	0.000000	0.000000	0.000000	0.000000	0.000000	0.000000	0.000000	0.000000	0.000000	0.000000	0.000000	0.000000	0.000000	0.000000	0.000000	0.000000	0.000000	0.000000	0.000000	0.000000	0.000000
9.215000	-0.040688	-0.265218	0.098653	0.155386	0.121521	0.168663	0.024136	0.093945	0.109510	0.050619	0.082794	0.027437	0.146525	0.146525	1.603551	1.299402	0.000000	0.000000	0.000000	0.000000	0.000000	0.000000	0.000000	0.000000	0.000000	0.000000	0.000000	0.000000	0.000000	0.000000	0.000000	0.000000	0.000000	0.000000	0.000000	0.000000	0.000000	0.000000
9.220000	-0.040602	-0.265316	0.098658	0.155982	0.122307	0.167760	0.023697	0.093664	0.108642	0.051413	0.083234	0.027437	0.146525	0.146525	1.601044	1.299379	0.000000	0.000000	0.000000	0.000000	0.000000	0.000000	0.000000	0.000000	0.000000	0.000000	0.000000	0.000000	0.000000	0.000000	0.000000	0.000000	0.000000	0.000000	0.000000	0.000000	0.000000	0.000000
9.225000	-0.040516	-0.265414	0.098663	0.156572	0.123086	0.166864	0.023261	0.093381	0.107781	0.052199	0.083668	0.027437	0.146525	0.146525	1.598561	1.299354	0.000000	0.000000	0.000000	0.000000	0.000000	0.000000	0.000000	0.000000	0.000000	0.000000	0.000000	0.000000	0.000000	0.000000	0.000000	0.000000	0.000000	0.000000	0.000000	0.000000	0.000000	0.000000
9.230000	-0.040431	-0.265512	0.098668	0.157155	0.123857	0.165973	0.022828	0.093096	0.106928	0.052978	0.084098	0.027437	0.146525	0.146525	1.596105	1.299329	0.000000	0.000000	0.000000	0.000000	0.000000	0.000000	0.000000	0.000000	0.000000	0.000000	0.000000	0.000000	0.000000	0.000000	0.000000	0.000000	0.000000	0.000000	0.000000	0.000000	0.000000	0.000000
9.235000	-0.040346	-0.265609	0.098673	0.157732	0.124620	0.165088	0.022399	0.092810	0.106082	0.053750	0.084523	0.027437	0.146525	0.146525	1.593674	1.299302	0.000000	0.000000	0.000000	0.000000	0.000000	0.000000	0.000000	0.000000	0.000000	0.000000	0.000000	0.000000	0.000000	0.000000	0.000000	0.000000	0.000000	0.000000	0.000000	0.000000	0.000000	0.000000
9.240000	-0.040262	-0.265706	0.098679	0.158301	0.125375	0.164209	0.021972	0.092523	0.105244	0.054515	0.084944	0.027437	0.146525	0.146525	1.591269	1.299275	0.000000	0.000000	0.000000	0.000000	0.000000	0.000000	0.000000	0.000000	0.000000	0.000000	0.000000	0.000000	0.000000	0.000000	0.000000	0.000000	0.000000	0.000000	0.000000	0.000000	0.000000	0.000000
9.245000	-0.040178	-0.265803	0.098685	0.158865	0.126122	0.163336	0.021549	0.092235	0.104414	0.055272	0.085359	0.027437	0.146525	0.146525	1.588889	1.299247	0.000000	0.000000	0.000000	0.000000	0.000000	0.000000	0.000000	0.000000	0.000000	0.000000	0.000000	0.000000	0.000000	0.000000	0.000000	0.000000	0.000000	0.000000	0.000000	0.000000	0.000000	0.000000
9.250000	-0.040095	-0.265900	0.098691	0.159421	0.126861	0.162469	0.021130	0.091945	0.103591	0.056022	0.085769	0.027437	0.146525	0.146525	1.586536	1.299217	0.000000	0.000000	0.000000	0.000000	0.000000	0.000000	0.000000	0.000000	0.000000	0.000000	0.000000	0.000000	0.000000	0.000000	0.000000	0.000000	0.000000	0.000000	0.000000	0.000000	0.000000	0.000000
9.255000	-0.040013	-0.265996	0.098698	0.159971	0.127591	0.161608	0.020714	0.091655	0.102776	0.056764	0.086174	0.027437	0.146525	0.146525	1.584208	1.299187	0.000000	0.000000	0.000000	0.000000	0.000000	0.000000	0.000000	0.000000	0.000000	0.000000	0.000000	0.000000	0.000000	0.000000	0.000000	0.000000	0.000000	0.000000	0.000000	0.000000	0.000000	0.000000
9.260000	-0.039931	-0.266091	0.098704	0.160514	0.128313	0.160753	0.020301	0.091364	0.101968	0.057498	0.086574	0.027437	0.146525	0.146525	1.581906	1.299156	0.000000	0.000000	0.000000	0.000000	0.000000	0.000000	0.000000	0.000000	0.000000	0.000000	0.000000	0.000000	0.000000	0.000000	0.000000	0.000000	0.000000	0.000000	0.000000	0.000000	0.000000	0.000000
9.265000	-0.039849	-0.266186	0.098711	0.161050	0.129027	0.159904	0.019891	0.091072	0.101168	0.058225	0.086968	0.027437	0.146525	0.146525	1.579630	1.299124	0.000000	0.000000	0.000000	0.000000	0.000000	0.000000	0.000000	0.000000	0.000000	0.000000	0.000000	0.000000	0.000000	0.000000	0.000000	0.000000	0.000000	0.000000	0.000000	0.000000	0.000000	0.000000
9.270000	-0.039769	-0.266280	0.098718	0.161579	0.129733	0.159062	0.019485	0.090780	0.100375	0.058944	0.087358	0.027437	0.146525	0.146525	1.577379	1.299091	0.000000	0.000000	0.000000	0.000000	0.000000	0.000000	0.000000	0.000000	0.000000	0.000000	0.000000	0.000000	0.000000	0.000000	0.000000	0.000000	0.000000	0.000000	0.000000	0.000000	0.000000	0.000000
9.275000	-0.039689	-0.266374	0.098725	0.162101	0.130430	0.158226	0.019083	0.090487	0.099590	0.059655	0.087742	0.027437	0.146525	0.146525	1.575155	1.299057	0.000000	0.000000	0.000000	0.000000	0.000000	0.000000	0.000000	0.000000	0.000000	0.000000	0.000000	0.000000	0.000000	0.000000	0.000000	0.000000	0.000000	0.000000	0.000000	0.000000	0.000000	0.000000
9.280000	-0.039609	-0.266467	0.098733	0.162616	0.131119	0.157397	0.018684	0.090195	0.098812	0.060358	0.088121	0.027437	0.146525	0.146525	1.572956	1.299022	0.000000	0.000000	0.000000	0.000000	0.000000	0.000000	0.000000	0.000000	0.000000	0.000000	0.000000	0.000000	0.000000	0.000000	0.000000	0.000000	0.000000	0.000000	0.000000	0.000000	0.000000	0.000000
9.285000	-0.039531	-0.266560	0.098740	0.163125	0.131800	0.156574	0.018288	0.089902	0.098043	0.061052	0.088494	0.027437	0.146525	0.146525	1.570783	1.298987	0.000000	0.000000	0.000000	0.000000	0.000000	0.000000	0.000000	0.000000	0.000000	0.000000	0.000000	0.000000	0.000000	0.000000	0.000000	0.000000	0.000000	0.000000	0.000000	0.000000	0.000000	0.000000
9.290000	-0.039453	-0.266651	0.098748	0.163626	0.132472	0.155758	0.017897	0.089609	0.097281	0.061739	0.088862	0.027437	0.146525	0.146525	1.568636	1.298950	0.000000	0.000000	0.000000	0.000000	0.000000	0.000000	0.000000	0.000000	0.000000	0.000000	0.000000	0.000000	0.000000	0.000000	0.000000	0.000000	0.000000	0.000000	0.000000	0.000000	0.000000	0.000000
9.295000	-0.039376	-0.266742	0.098755	0.164121	0.133136	0.154950	0.017509	0.089317	0.096526	0.062418	0.089225	0.027437	0.146525	0.146525	1.566515	1.298913	0.000000	0.000000	0.000000	0.000000	0.000000	0.000000	0.000000	0.000000	0.000000	0.000000	0.000000	0.000000	0.000000	0.000000	0.000000	0.000000	0.000000	0.000000	0.000000	0.000000	0.000000	0.000000
